<?xml version="1.0" encoding="iso-8859-1"?>
<!-- Generator: Adobe Illustrator 19.0.0, SVG Export Plug-In . SVG Version: 6.00 Build 0)  -->
<svg version="1.1" id="Layer_1" xmlns="http://www.w3.org/2000/svg" xmlns:xlink="http://www.w3.org/1999/xlink" x="0px" y="0px"
	 viewBox="0 0 512.001 512.001" style="enable-background:new 0 0 512.001 512.001;" xml:space="preserve">
<path style="fill:#2BA5F7;" d="M433.8,39.869V472.13c0,16.766-13.598,30.363-30.363,30.363H108.572
	c-16.778,0-30.376-13.598-30.376-30.363V39.869c0-16.766,13.598-30.363,30.376-30.363h294.865
	C420.203,9.506,433.8,23.103,433.8,39.869z"/>
<path style="fill:#2197D8;" d="M113.679,472.13V39.869c0-16.766,13.598-30.363,30.376-30.363h-35.483
	c-16.778,0-30.376,13.598-30.376,30.363V472.13c0,16.766,13.598,30.363,30.376,30.363h35.483
	C127.277,502.493,113.679,488.895,113.679,472.13z"/>
<rect x="129.894" y="60.589" style="fill:#666666;" width="252.196" height="82.321"/>
<g>
	<rect x="228.385" y="293.205" style="fill:#F7B239;" width="55.214" height="59.333"/>
	<rect x="129.894" y="293.205" style="fill:#F7B239;" width="55.214" height="59.333"/>
	<rect x="129.894" y="395.345" style="fill:#F7B239;" width="55.214" height="59.333"/>
	<rect x="228.385" y="395.345" style="fill:#F7B239;" width="55.214" height="59.333"/>
	<polygon style="fill:#F7B239;" points="382.096,413.595 382.096,454.68 326.882,454.68 326.882,413.595 326.882,395.347 
		326.882,293.206 382.096,293.206 382.096,395.347 	"/>
	<rect x="326.876" y="191.051" style="fill:#F7B239;" width="55.214" height="59.346"/>
	<rect x="228.385" y="191.051" style="fill:#F7B239;" width="55.214" height="59.346"/>
	<rect x="129.894" y="191.051" style="fill:#F7B239;" width="55.214" height="59.346"/>
</g>
<g>
	<rect x="129.894" y="293.205" style="fill:#E09B2D;" width="22.861" height="59.333"/>
	<rect x="129.894" y="395.345" style="fill:#E09B2D;" width="22.861" height="59.333"/>
	<rect x="129.894" y="191.051" style="fill:#E09B2D;" width="22.861" height="59.346"/>
	<rect x="228.385" y="293.205" style="fill:#E09B2D;" width="22.861" height="59.333"/>
	<rect x="228.385" y="395.345" style="fill:#E09B2D;" width="22.861" height="59.333"/>
	<rect x="228.385" y="191.051" style="fill:#E09B2D;" width="22.861" height="59.346"/>
	<rect x="326.876" y="293.205" style="fill:#E09B2D;" width="22.861" height="161.474"/>
	<rect x="326.876" y="191.051" style="fill:#E09B2D;" width="22.861" height="59.346"/>
</g>
<g>
	<path style="fill:#FFFFFF;" d="M407.82,188.543c-5.25,0-9.504-4.255-9.504-9.504V71.666c0-5.249,4.254-9.504,9.504-9.504
		s9.504,4.255,9.504,9.504v107.373C417.325,184.288,413.071,188.543,407.82,188.543z"/>
	<path style="fill:#FFFFFF;" d="M356.192,125.509c-5.25,0-9.504-4.255-9.504-9.504V87.494c0-5.249,4.254-9.504,9.504-9.504
		s9.504,4.255,9.504,9.504v28.511C365.697,121.253,361.443,125.509,356.192,125.509z"/>
	<circle style="fill:#FFFFFF;" cx="407.815" cy="41.186" r="9.504"/>
</g>
<g>
	<path style="fill:#333333;" d="M403.432,0H108.57C86.583,0,68.695,17.887,68.695,39.874v432.253
		c0,21.987,17.887,39.874,39.874,39.874h294.862c21.987,0,39.874-17.887,39.874-39.874V39.874C443.305,17.887,425.417,0,403.432,0z
		 M424.296,472.127c0,11.505-9.36,20.865-20.865,20.865H108.57c-11.505,0-20.865-9.36-20.865-20.865V39.874
		c0-11.505,9.36-20.865,20.865-20.865h294.862c11.505,0,20.865,9.36,20.865,20.865v432.253H424.296z"/>
	<path style="fill:#333333;" d="M382.1,51.08H129.901c-5.25,0-9.504,4.255-9.504,9.504v82.322c0,5.249,4.254,9.504,9.504,9.504
		H382.1c5.25,0,9.504-4.255,9.504-9.504V60.585C391.604,55.336,387.349,51.08,382.1,51.08z M372.596,133.403h-233.19V70.089h233.19
		V133.403z"/>
	<path style="fill:#333333;" d="M185.115,181.553h-55.214c-5.25,0-9.504,4.255-9.504,9.504v59.335c0,5.249,4.254,9.504,9.504,9.504
		h55.214c5.25,0,9.504-4.255,9.504-9.504v-59.335C194.62,185.809,190.366,181.553,185.115,181.553z M175.611,240.889h-36.205
		v-40.327h36.205V240.889z"/>
	<path style="fill:#333333;" d="M185.115,283.697h-55.214c-5.25,0-9.504,4.255-9.504,9.504v59.335c0,5.249,4.254,9.504,9.504,9.504
		h55.214c5.25,0,9.504-4.255,9.504-9.504v-59.335C194.62,287.952,190.366,283.697,185.115,283.697z M175.611,343.032h-36.205
		v-40.327h36.205V343.032z"/>
	<path style="fill:#333333;" d="M185.115,385.84h-55.214c-5.25,0-9.504,4.255-9.504,9.504v59.335c0,5.249,4.254,9.504,9.504,9.504
		h55.214c5.25,0,9.504-4.255,9.504-9.504v-59.335C194.62,390.095,190.366,385.84,185.115,385.84z M175.611,445.175h-36.205v-40.327
		h36.205V445.175z"/>
	<path style="fill:#333333;" d="M283.608,181.553h-55.214c-5.25,0-9.504,4.255-9.504,9.504v59.335c0,5.249,4.254,9.504,9.504,9.504
		h55.214c5.25,0,9.504-4.255,9.504-9.504v-59.335C293.112,185.809,288.857,181.553,283.608,181.553z M274.103,240.889h-36.205
		v-40.327h36.205V240.889z"/>
	<path style="fill:#333333;" d="M283.608,283.697h-55.214c-5.25,0-9.504,4.255-9.504,9.504v59.335c0,5.249,4.254,9.504,9.504,9.504
		h55.214c5.25,0,9.504-4.255,9.504-9.504v-59.335C293.112,287.952,288.857,283.697,283.608,283.697z M274.103,343.032h-36.205
		v-40.327h36.205V343.032z"/>
	<path style="fill:#333333;" d="M283.608,385.84h-55.214c-5.25,0-9.504,4.255-9.504,9.504v59.335c0,5.249,4.254,9.504,9.504,9.504
		h55.214c5.25,0,9.504-4.255,9.504-9.504v-59.335C293.112,390.095,288.857,385.84,283.608,385.84z M274.103,445.175h-36.205v-40.327
		h36.205V445.175z"/>
	<path style="fill:#333333;" d="M382.1,181.553h-55.214c-5.25,0-9.504,4.255-9.504,9.504v59.335c0,5.249,4.254,9.504,9.504,9.504
		H382.1c5.25,0,9.504-4.255,9.504-9.504v-59.335C391.604,185.809,387.349,181.553,382.1,181.553z M372.596,240.889H336.39v-40.327
		h36.205V240.889z"/>
	<path style="fill:#333333;" d="M382.1,283.697h-55.214c-5.25,0-9.504,4.255-9.504,9.504V454.68c0,5.249,4.254,9.504,9.504,9.504
		H382.1c5.25,0,9.504-4.255,9.504-9.504V293.201C391.604,287.952,387.349,283.697,382.1,283.697z M372.596,445.175H336.39v-142.47
		h36.205V445.175z"/>
</g>
<g>
</g>
<g>
</g>
<g>
</g>
<g>
</g>
<g>
</g>
<g>
</g>
<g>
</g>
<g>
</g>
<g>
</g>
<g>
</g>
<g>
</g>
<g>
</g>
<g>
</g>
<g>
</g>
<g>
</g>
</svg>
